<svg xmlns="http://www.w3.org/2000/svg" xmlns:xlink="http://www.w3.org/1999/xlink" aria-hidden="true" role="img" class="iconify iconify--logos" width="31.88" height="32" preserveAspectRatio="xMidYMid meet" viewBox="0 0 256 257"><defs><linearGradient id="IconifyId1813088fe1fbc01fb466" x1="-.828%" x2="57.636%" y1="7.652%" y2="78.411%"><stop offset="0%" stop-color="#41D1FF"></stop><stop offset="100%" stop-color="#BD34FE"></stop></linearGradient><linearGradient id="IconifyId1813088fe1fbc01fb467" x1="43.376%" x2="50.316%" y1="2.242%" y2="89.03%"><stop offset="0%" stop-color="#FFBD4F"></stop><stop offset="100%" stop-color="#FF980E"></stop></linearGradient></defs><path fill="url(#IconifyId1813088fe1fbc01fb466)" d="M255.153 37.938L134.897 252.976c-2.213 3.963-6.43 6.429-11.102 6.429H59.393c-4.77 0-8.993-2.466-11.102-6.429L2 37.938c-2.213-3.963-.27-9.039 4.ba-8.699l120.385 27.715a14.658 14.658 0 0 0 6.373 0l54.72-12.685a5.219 5.219 0 0 1 3.32.275c2.994 1.527 4.963 5.067 3.998 8.409Z"></path><path fill="url(#IconifyId1813088fe1fbc01fb467)" d="M185.432.063L96.44 17.501a3.268 3.268 0 0 0-2.634 1.342l-23.256 26.501-.008-.009.047.046c-10.243 11.757-18.871 22.092-24.36 31.186 3.123-5.6 8.156-11.425 15.079-11.28.55.011.974.077 1.392.083L57.56 44.615l-.037.039l.045-.041c-10.425 11.759-18.832 22.201-24.32 31.186 3.123-5.6 8.156-11.425 15.079-11.28.55.011.974.077 1.392.083L19.96 45.812a4.98 4.98 0 0 1 2-1.342l.008.009-23.256 26.5 120.385 27.715a14.658 14.658 0 0 0 6.373 0l54.72-12.686a5.219 5.219 0 0 1 3.32.275c2.994 1.527 4.963 5.067 3.998 8.409l-75.895 175.039c-2.213 3.963-6.43 6.429-11.102 6.429L61.393 288.429c-4.77 0-8.993-2.466-11.102-6.429L.251 4.784a5.219 5.219 0 0 1 3.32-.275l54.72 12.685a14.658 14.658 0 0 0 6.373 0L185.432 75.047a5.219 5.219 0 0 1-3.32-.275c-2.993-1.927-4.962-5.467-4.961-8.409L185.432 37.938v-.875Z"></path></svg>